# xmcd
#
# Track frame offsets:
#	150
#	22475
#	41275
#	64100
#	84425
#	103450
#	120400
#	145287
#	162750
#	180387
#	201325
#	220445
#	241145
#	256912
#	273800
#	293912
#
# Disc length: 4177
#
# Revision: 1
# Processed by: cddbd v1.5.1PL0 Copyright (c) Steve Scherf et al.
# Submitted via: audiograbber 1.83.01
# Normalized: r0:TDELIM( - )
#
DISCID=ea104f10
DTITLE=Various Artist - Passion Of Love - CD 3
DYEAR=1900
DGENRE=Dream
TTITLE0=Michael Bolton - Georgia on My Mind
TTITLE1=Leo Sayer - When I Need You
TTITLE2=Chris Norman - Midnight Lady
TTITLE3=Bonnie Tyler - Lovers Again
TTITLE4=Bill Withers - Lovely Day
TTITLE5=Jalal - Wind of Change
TTITLE6=Mr. Mister - Broken Wings
TTITLE7=Patricia Kaas - Ceux qui nónt rien
TTITLE8=Don Johnson - When You Only Loved Me
TTITLE9=Spagna - Only Words
TTITLE10=Anggun - Snow On The Sahara
TTITLE11=Ginuwine - When Doves  Cry
TTITLE12=In-Mood feat. Juliette - The Last Unicorn
TTITLE13=Toto - Takin´It Back
TTITLE14=Santana - Bella
TTITLE15=3 Colours Red - Beautiful Day
EXTD=
EXTT0=
EXTT1=
EXTT2=
EXTT3=
EXTT4=
EXTT5=
EXTT6=
EXTT7=
EXTT8=
EXTT9=
EXTT10=
EXTT11=
EXTT12=
EXTT13=
EXTT14=
EXTT15=
PLAYORDER=
